<?xml version="1.0" encoding="iso-8859-1"?>
<!-- Generator: Adobe Illustrator 19.0.0, SVG Export Plug-In . SVG Version: 6.00 Build 0)  -->
<svg version="1.1" id="Layer_1" xmlns="http://www.w3.org/2000/svg" xmlns:xlink="http://www.w3.org/1999/xlink" x="0px" y="0px"
	 viewBox="0 0 320 320" style="enable-background:new 0 0 320 320;" xml:space="preserve">
<g id="XMLID_941_">
	<path id="XMLID_942_" style="fill:#FFE98F;" d="M273.756,111.238c0-52.6-42.562-95.238-95.056-95.238s-95.052,42.638-95.052,95.238
		c0,19.74,5.995,38.078,16.263,53.287c-1.481,0.184-3,0.3-4.603,0.3c-51.97,0-88.43-32-88.43-32S0,143.188,0,166.857
		C0,242.598,61.284,304,136.878,304c75.598,0,136.878-61.402,136.878-137.143c0-9.325-2.216-16.569-6.028-22.212
		C271.618,134.247,273.756,122.995,273.756,111.238z"/>
	<path id="XMLID_943_" style="fill:#FFDA44;" d="M160,17.847c-43.538,8.705-76.351,47.206-76.351,93.391
		c0,19.74,5.995,38.078,16.263,53.287c-1.481,0.184-3,0.3-4.603,0.3c-51.97,0-88.43-32-88.43-32S0,143.188,0,166.857
		C0,242.598,61.284,304,136.878,304c7.882,0,15.605-0.677,23.122-1.958V17.847z"/>
	<path id="XMLID_944_" style="fill:#BE720D;" d="M272.539,95.813L320,126.146l-47.283,30.482
		C272.717,156.628,242.12,126.289,272.539,95.813z"/>
	<path id="XMLID_945_" style="fill:#FF9811;" d="M320,126.146l-47.461-30.333c-16.646,16.677-15.021,33.314-10.136,44.96
		C262.4,141.079,320,126.146,320,126.146z"/>
	<circle id="XMLID_946_" style="fill:#003638;" cx="200" cy="105.261" r="10"/>
	<path id="XMLID_947_" style="fill:#FF9811;" d="M139.2,185.878c-10.136,0-19.961,4.877-27.467,8.267
		c-8.267,3.733-23.467,7.2-36.533,5.867c-17.388-1.775-32.267-8-41.692-15.325c8.283,48.417,49.826,85.95,100.06,87.578
		c2.01,0,3.667,0.014,5.632,0.014c23.858,0,43.2-19.341,43.2-43.2S163.059,185.878,139.2,185.878z"/>
</g>
<g>
</g>
<g>
</g>
<g>
</g>
<g>
</g>
<g>
</g>
<g>
</g>
<g>
</g>
<g>
</g>
<g>
</g>
<g>
</g>
<g>
</g>
<g>
</g>
<g>
</g>
<g>
</g>
<g>
</g>
</svg>
